# xmcd
#
# Track frame offsets:
#	150
#	18337
#	33477
#	46470
#	61700
#	76927
#	99550
#	119630
#	137825
#	151592
#	170195
#	187130
#	202742
#	213915
#	228887
#	246750
#	260157
#	274792
#
# Disc length: 3892 seconds
#
# Revision: 2
# Processed by: cddbd v1.5.2PL0 Copyright (c) Steve Scherf et al.
# Submitted via: EasyCDDAExtractor 6.5.0.1
#
DISCID=f90f3212
DTITLE=Various Artist - Women In Country II
DYEAR=1997
DGENRE=Country
TTITLE0=Reba McEntire - I Won't Stand In Line
TTITLE1=LeAnn Rimes - The Light In Your Eyes
TTITLE2=Mary Chapin Carpenter - Let Me Into Your Heart
TTITLE3=Trisha Yearwood - Thinkin' About You
TTITLE4=Deana Carter - We Danced Anyway
TTITLE5=Wynonna - My Angel Is Here
TTITLE6=Suzy Bogguss and Chet Atkins - One More For The Road
TTITLE7=Faith Hill - I Can't Do That Anymore
TTITLE8=Patty Loveless - Here I Am
TTITLE9=Bobbie Cryner - You'd Think He'd Know Me Better
TTITLE10=Kathy Mattea - Nobody's Gonna Rain On Our Parade
TTITLE11=JoDee Messina - Heads Carolina, Tails California
TTITLE12=Dolly Parton - Put A Little Love In You Heart
TTITLE13=Nanci Griffith - Turn Around
TTITLE14=Gretchen Peters - I Was Looking For You
TTITLE15=Victoria Shaw - Lucky Me Lucky You
TTITLE16=Shelby Lynne - Slow Me Down
TTITLE17=Sweethearts Of The Rodeo - Beautiful Lies
EXTD=
EXTT0=
EXTT1=
EXTT2=
EXTT3=
EXTT4=
EXTT5=
EXTT6=
EXTT7=
EXTT8=
EXTT9=
EXTT10=
EXTT11=
EXTT12=
EXTT13=
EXTT14=
EXTT15=
EXTT16=
EXTT17=
PLAYORDER=
